HIERARCHY
ROOT hip
{
	OFFSET 0.000000 0.000000 0.000000 
	CHANNELS 6 Xposition Yposition Zposition Xrotation Zrotation Yrotation
	JOINT abdomen
	{
		OFFSET 0.000000 3.402643 0.000000 
		CHANNELS 3 Xrotation Zrotation Yrotation
		JOINT chest
		{
			OFFSET 0.000000 8.438565 -0.680529 
			CHANNELS 3 Xrotation Zrotation Yrotation
			JOINT neck
			{
				OFFSET 0.000000 10.207942 -0.272212 
				CHANNELS 3 Xrotation Zrotation Yrotation
				JOINT head
				{
					OFFSET 0.000000 3.130431 0.000000 
					CHANNELS 3 Xrotation Zrotation Yrotation
					End Site
					{
						OFFSET 0.000000 3.130435 0.000000 
					}
				}
			}
			JOINT lCollar
			{
				OFFSET 3.470700 6.669187 -0.816635 
				CHANNELS 3 Yrotation Zrotation Xrotation
				JOINT lShldr
				{
					OFFSET 3.198488 0.000000 0.000000 
					CHANNELS 3 Zrotation Yrotation Xrotation
					JOINT lForeArm
					{
						OFFSET 10.139888 0.000000 0.000000 
						CHANNELS 3 Yrotation Zrotation Xrotation
						JOINT lHand
						{
							OFFSET 8.370511 0.000000 0.000000 
							CHANNELS 3 Zrotation Yrotation Xrotation
							End Site
							{
								OFFSET 4.083176 0.000000 0.000000 
							}
						}
					}
				}
			}
			JOINT rCollar
			{
				OFFSET -3.470700 6.669187 -0.816635 
				CHANNELS 3 Yrotation Zrotation Xrotation
				JOINT rShldr
				{
					OFFSET -3.198488 0.000000 0.000000 
					CHANNELS 3 Zrotation Yrotation Xrotation
					JOINT rForeArm
					{
						OFFSET -10.139888 0.000000 0.000000 
						CHANNELS 3 Yrotation Zrotation Xrotation
						JOINT rHand
						{
							OFFSET -8.370511 0.000000 0.000000 
							CHANNELS 3 Zrotation Yrotation Xrotation
							End Site
							{
								OFFSET -4.083176 0.000000 0.000000 
							}
						}
					}
				}
			}
		}
	}
	JOINT lThigh
	{
		OFFSET 5.308129 -1.633274 1.361059 
		CHANNELS 3 Xrotation Zrotation Yrotation
		JOINT lShin
		{
			OFFSET -2.041588 -20.007561 0.000000 
			CHANNELS 3 Xrotation Zrotation Yrotation
			JOINT lFoot
			{
				OFFSET 0.000000 -19.190928 -1.224953 
				CHANNELS 3 Xrotation Yrotation Zrotation
				End Site
				{
					OFFSET 0.000000 -2.449906 4.627600 
				}
			}
		}
	}
	JOINT rThigh
	{
		OFFSET -5.308129 -1.633274 1.361059 
		CHANNELS 3 Xrotation Zrotation Yrotation
		JOINT rShin
		{
			OFFSET 2.041588 -20.007561 0.000000 
			CHANNELS 3 Xrotation Zrotation Yrotation
			JOINT rFoot
			{
				OFFSET 0.000000 -19.190928 -1.224953 
				CHANNELS 3 Xrotation Yrotation Zrotation
				End Site
				{
					OFFSET 0.000000 -2.449906 4.627600 
				}
			}
		}
	}
}
MOTION
Frames: 18
Frame Time: 0.033333
0.256658 52.524002 -2.752900 0.724581 3.562969 -9.066541 18.343054 -0.846596 -6.052479 -18.962534 6.374127 -1.171039 -17.064360 -4.433798 3.962080 32.310520 3.415625 7.949238 6.816112 -12.311937 2.827527 -67.111191 -83.353310 62.823254 -89.656052 5.533069 34.902130 8.524705 12.647240 -49.368542 0.373195 8.812257 0.818997 58.927418 20.583549 6.474336 55.929161 -8.818050 10.625545 -8.534408 -12.637552 27.406109 6.811845 1.884427 0.418831 12.395487 -5.969173 -2.442336 -16.266998 0.282071 -2.847925 -5.358768 -13.481404 5.142736 27.843920 5.433582 4.569689 -22.625027 3.391209 3.899536 
0.258221 52.528069 -2.748211 0.724581 3.562969 -9.066541 18.322258 -0.818402 -6.070346 -18.893764 6.375651 -1.173213 -17.143385 -4.285776 4.001660 32.057766 3.264400 8.011858 6.816112 -12.311937 2.827527 -68.021111 -83.793770 63.637611 -89.588951 5.481383 34.861908 8.524705 12.647240 -49.485729 0.373195 8.812257 0.818997 58.893887 20.729231 6.500276 55.982101 -8.825596 10.647178 -8.534408 -12.637552 27.269388 6.836665 1.873663 0.445844 12.374433 -5.968434 -2.430783 -16.282898 0.205764 -2.868067 -5.337271 -13.467766 5.132494 27.833975 5.433538 4.568806 -22.606522 3.389059 3.885982 
0.258221 52.526192 -2.751962 0.705301 3.618480 -9.067026 18.350048 -0.851405 -6.125853 -18.942654 6.413829 -1.187909 -17.262470 -4.181202 4.060637 31.838564 3.172433 8.101806 6.816112 -12.311937 2.827527 -69.016441 -84.158592 64.542877 -89.541679 5.440477 34.832851 8.524705 12.647240 -49.612682 0.373195 8.812257 0.818997 58.843697 20.776793 6.617595 56.056583 -8.838729 10.690007 -8.534408 -12.637552 27.269388 6.894188 1.816634 0.464891 12.295194 -5.974853 -2.434024 -16.244081 0.223338 -2.880153 -5.348209 -13.528708 5.161585 27.833975 5.433536 4.568805 -22.659081 3.370016 3.888195 
0.261347 52.521816 -2.746023 0.686013 3.664227 -9.067671 18.350275 -0.889144 -6.139361 -18.972012 6.432749 -1.190946 -17.258280 -4.132447 4.086277 31.525066 3.150192 8.154963 6.816112 -12.311937 2.827527 -70.699051 -84.593109 66.120255 -89.477028 5.386218 34.782917 8.524705 12.647240 -49.739632 0.373195 8.812257 0.818997 58.823624 20.795818 6.725069 56.142185 -8.853291 10.721752 -8.534408 -12.637552 27.347513 6.925156 1.756827 0.367267 12.245065 -5.967250 -2.408462 -16.189201 0.289177 -2.843411 -5.349393 -13.599531 5.140749 27.833975 5.433537 4.568805 -22.626343 3.389287 3.887035 
0.266975 52.524940 -2.734769 0.705286 3.648015 -9.086191 18.300877 -0.835884 -6.116821 -18.913118 6.424200 -1.184508 -17.303209 -4.064009 4.102778 31.211103 3.142298 8.186778 6.816112 -12.311937 2.827527 -72.880676 -85.046089 68.214592 -89.387741 5.312282 34.723469 8.524705 12.647240 -49.886120 0.373195 8.812257 0.818997 58.821049 20.883677 6.773905 56.257561 -8.865134 10.768606 -8.534408 -12.637552 27.357279 6.981158 1.767764 0.335655 12.179754 -5.965764 -2.432333 -16.182404 0.372724 -2.841454 -5.370015 -13.591878 5.141547 27.843920 5.433583 4.569689 -22.628441 3.369597 3.897855 
0.264473 52.529942 -2.730079 0.724528 3.622175 -9.114617 18.280764 -0.806515 -6.084291 -18.912937 6.453368 -1.174361 -17.434772 -3.941916 4.117101 31.055983 2.981200 8.177032 6.816112 -12.311937 2.827527 -75.214264 -85.434891 70.457428 -89.299454 5.237443 34.664120 8.524705 12.647240 -49.944714 0.373195 8.812257 0.818997 58.818760 20.961773 6.803213 56.363422 -8.879360 10.813731 -8.534408 -12.637552 27.327982 6.971551 1.796787 0.300364 12.162355 -5.957258 -2.420064 -16.194311 0.416759 -2.817284 -5.377889 -13.548920 5.162574 27.833975 5.433536 4.568805 -22.588070 3.377430 3.889619 
0.263849 52.525566 -2.731018 0.734178 3.633611 -9.123638 18.280153 -0.801956 -6.074072 -18.971775 6.471692 -1.180710 -17.519470 -3.907529 4.150168 30.936686 2.930743 8.219695 6.816112 -12.311937 2.827527 -77.387390 -85.774918 72.584061 -89.235954 5.181957 34.614399 8.524705 12.647240 -49.876358 0.373195 8.812257 0.818997 58.790081 20.941500 6.949769 56.512699 -8.902905 10.879025 -8.534408 -12.637552 27.376812 6.946184 1.786294 0.340107 12.168390 -5.967932 -2.412189 -16.155489 0.422270 -2.814017 -5.390440 -13.564235 5.152497 27.806101 5.424085 4.554341 -22.558548 3.321833 3.864148 
0.264161 52.523693 -2.728516 0.763171 3.598938 -9.102775 18.259293 -0.739087 -6.052221 -18.991369 6.481054 -1.182798 -17.604511 -3.925987 4.210766 30.767120 3.032460 8.349839 6.816112 -12.311937 2.827527 -80.422256 -86.144882 75.588455 -89.165421 5.119254 34.565392 8.524705 12.647240 -49.778694 0.373195 8.812257 0.818997 58.750500 20.960028 7.057300 56.596828 -8.911777 10.914358 -8.534408 -12.637552 27.513531 6.907920 1.824932 0.386459 12.148046 -5.965000 -2.409156 -16.132164 0.338989 -2.848702 -5.389616 -13.533258 5.153011 27.794815 5.433439 4.545874 -22.569530 3.370841 3.884533 
0.264473 52.523693 -2.719451 0.743828 3.595974 -9.113767 18.259876 -0.735148 -6.028848 -18.942293 6.472174 -1.167643 -17.660543 -3.956011 4.270466 30.434654 3.188933 8.492836 6.816112 -12.311937 2.827527 -85.054222 -86.540268 80.125069 -89.092384 5.057261 34.506767 8.524705 12.647240 -49.710339 0.373195 8.812257 0.818997 58.748211 21.038122 7.053807 56.618542 -8.916500 10.924414 -8.534408 -12.637552 27.513531 6.968788 1.825791 0.392934 12.107550 -5.958712 -2.405122 -16.162052 0.350028 -2.842843 -5.350114 -13.532608 5.092107 27.794815 5.433434 4.545874 -22.535782 3.448398 3.908575 
0.261973 52.524319 -2.710385 0.734086 3.594926 -9.153438 18.251705 -0.746185 -5.955537 -18.814550 6.474603 -1.143566 -17.865795 -3.976180 4.309852 30.255085 3.297144 8.563287 6.816112 -12.311937 2.827527 -92.933151 -86.987091 87.910599 -89.021729 4.994298 34.457066 8.524705 12.647240 -49.622448 0.373195 8.812257 0.818997 58.743042 21.213839 7.024523 56.640251 -8.921212 10.934477 -8.534408 -12.637552 27.376812 7.030678 1.816472 0.368474 12.051466 -5.984625 -2.403029 -16.164574 0.414744 -2.829228 -5.341063 -13.543894 5.061790 27.806101 5.424086 4.554342 -22.505672 3.497929 3.938181 
0.258221 52.526192 -2.705070 0.724389 3.623037 -9.182971 18.253572 -0.812828 -5.934247 -18.745571 6.505102 -1.125625 -18.078283 -3.883945 4.314481 30.185137 3.275817 8.560970 6.816112 -12.311937 2.827527 78.562996 -92.687706 -83.695999 -88.959152 4.937666 34.408482 8.524705 12.647240 -49.427135 0.373195 8.812257 0.818997 58.758804 21.341242 7.099061 56.724373 -8.929837 10.969910 -8.534408 -12.637552 27.347513 7.076636 1.796628 0.373352 11.999140 -5.958251 -2.385647 -16.134848 0.399238 -2.826569 -5.339432 -13.550307 5.131094 27.814394 5.433487 4.557339 -22.552948 3.461614 3.917833 
0.256033 52.523067 -2.701006 0.705127 3.668625 -9.173834 18.244049 -0.868120 -5.950216 -18.696245 6.535351 -1.119601 -18.153812 -3.843563 4.333582 30.010307 3.293033 8.589821 6.816112 -12.311937 2.827527 70.321007 -92.481171 -75.563210 -88.891342 4.872653 34.359718 8.524705 12.647240 -49.339249 0.373195 8.812257 0.818997 58.737579 21.399315 7.304191 56.872154 -8.947377 11.037400 -8.534408 -12.637552 27.542828 7.090241 1.746933 0.386253 11.960883 -5.970741 -2.363712 -16.133520 0.365521 -2.834097 -5.340681 -13.611500 5.120236 27.806101 5.424084 4.554341 -22.554695 3.501303 3.942657 
0.256658 52.523067 -2.702256 0.695555 3.705772 -9.144687 18.272251 -0.903046 -5.994289 -18.686228 6.564999 -1.127757 -18.190413 -3.806427 4.348113 29.686655 3.281374 8.606415 6.816112 -12.311937 2.827527 61.239094 -92.351456 -66.638321 -88.837288 4.822701 34.320335 8.524705 12.647240 -49.397839 0.373195 8.812257 0.818997 58.716057 21.467148 7.460497 56.968472 -8.962842 11.081287 -8.534408 -12.637552 27.630716 7.119929 1.707769 0.379633 11.987690 -5.959939 -2.375195 -16.144686 0.393596 -2.818692 -5.328336 -13.655221 5.090026 27.806101 5.424085 4.554341 -22.556873 3.495385 3.927646 
0.256346 52.528381 -2.702569 0.724512 3.651715 -9.133772 18.289042 -0.791852 -5.990807 -18.745199 6.563997 -1.144220 -18.246069 -3.749080 4.359045 29.390146 3.226421 8.616990 6.816112 -12.311937 2.827527 52.829739 -92.281639 -58.356892 -88.781433 4.773019 34.272110 8.524705 12.647240 -49.309948 0.373195 8.812257 0.818997 58.704868 21.515709 7.607011 57.021378 -8.969110 11.103433 -8.534408 -12.637552 27.601421 7.058365 1.787198 0.363308 12.045820 -5.996233 -2.403106 -16.213217 0.382452 -2.803204 -5.318905 -13.587485 5.110154 27.793919 5.434805 4.565697 -22.582104 3.460248 3.929692 
0.257283 52.528698 -2.704445 0.743719 3.537765 -9.143827 18.318298 -0.663871 -5.909085 -18.774992 6.514289 -1.128793 -18.323717 -3.733221 4.366159 29.110424 3.297132 8.629096 6.816112 -12.311937 2.827527 42.220676 -92.291931 -47.820587 -88.714066 4.707341 34.223549 8.524705 12.647240 -49.251354 0.373195 8.812257 0.818997 58.740406 21.633852 7.548328 56.999836 -8.963987 11.083540 -8.534408 -12.637552 27.425640 6.997244 1.894182 0.330860 12.086840 -5.980202 -2.385769 -16.242373 0.393103 -2.819609 -5.308211 -13.458553 5.141163 27.774021 5.434714 4.563928 -22.587044 3.436113 3.914527 
0.254470 52.524002 -2.710697 0.724427 3.544302 -9.135144 18.385851 -0.671930 -5.905016 -18.784630 6.543389 -1.129454 -18.466156 -3.631356 4.375258 28.898022 3.178359 8.620215 6.816112 -12.311937 2.827527 33.007790 -92.373215 -38.708805 -88.682716 4.678382 34.194530 8.524705 12.647240 -49.261120 0.373195 8.812257 0.818997 58.726021 21.789793 7.613118 56.957706 -8.960269 11.071345 -8.534408 -12.637552 27.279156 6.981037 1.894927 0.410620 12.121518 -5.975481 -2.398671 -16.191296 0.335059 -2.829212 -5.291316 -13.463948 5.129939 27.764391 5.434712 4.553347 -22.571251 3.411442 3.909956 
0.252594 52.524632 -2.708197 0.734130 3.624097 -9.143294 18.367065 -0.771676 -5.947203 -18.764664 6.592748 -1.136231 -18.549187 -3.599297 4.429574 28.657248 3.225313 8.728072 6.816112 -12.311937 2.827527 25.638918 -92.491951 -31.451225 -88.652245 4.648880 34.164711 8.524705 12.647240 -49.212288 0.373195 8.812257 0.818997 58.703918 21.877148 7.867086 56.968472 -8.962842 11.081287 -8.534408 -12.637552 27.298687 6.979848 1.826156 0.412035 12.125235 -5.967757 -2.397960 -16.208920 0.292381 -2.841833 -5.347781 -13.537637 5.141792 27.774021 5.434715 4.563928 -22.570459 3.415332 3.912417 
0.250718 52.529316 -2.700381 0.772748 3.650095 -9.160086 18.300840 -0.811070 -5.905602 -18.784315 6.592063 -1.118945 -18.410971 -3.629606 4.449043 28.232632 3.330620 8.775894 6.816112 -12.311937 2.827527 19.873802 -92.634308 -25.764593 -88.591164 4.590523 34.116467 8.524705 12.647240 -49.192764 0.373195 8.812257 0.818997 58.714825 21.838350 8.091666 57.063496 -8.972768 11.117174 -8.534408 -12.637552 27.474468 6.976000 1.796200 0.379071 12.097517 -5.980650 -2.386683 -16.220118 0.318842 -2.827295 -5.397475 -13.578340 5.103831 27.785894 5.423954 4.562273 -22.545151 3.451166 3.910807 
